<svg width="55" height="55" viewBox="0 0 55 55" fill="none" xmlns="http://www.w3.org/2000/svg">
<circle cx="27.5" cy="27.5" r="27.5" fill="#D9D9D9"/>
<g clip-path="url(#clip0_687_568)">
<path d="M39.9094 34.1577C38.3918 32.5134 36.5502 31.2012 34.5005 30.3037C32.4508 29.4062 30.2375 28.9429 27.9999 28.9429C25.7624 28.9429 23.5491 29.4062 21.4994 30.3037C19.4497 31.2012 17.6081 32.5134 16.0905 34.1577C15.8562 34.4167 15.7251 34.7528 15.7222 35.1021V40.7688C15.7271 41.1412 15.8786 41.4967 16.1437 41.7583C16.4089 42.0199 16.7664 42.1666 17.1388 42.1666H38.8611C39.2368 42.1666 39.5971 42.0173 39.8628 41.7516C40.1285 41.486 40.2777 41.1256 40.2777 40.7499V35.0832C40.2702 34.7405 40.1394 34.4119 39.9094 34.1577Z" fill="#6D6D6D"/>
<path d="M27.9998 27.0557C31.651 27.0557 34.6109 24.0958 34.6109 20.4446C34.6109 16.7934 31.651 13.8335 27.9998 13.8335C24.3486 13.8335 21.3887 16.7934 21.3887 20.4446C21.3887 24.0958 24.3486 27.0557 27.9998 27.0557Z" fill="#6D6D6D"/>
</g>
<defs>
<clipPath id="clip0_687_568">
<rect width="34" height="34" fill="white" transform="translate(11 11)"/>
</clipPath>
</defs>
</svg>
